<svg width="86" height="79" viewBox="0 0 86 79" fill="none" xmlns="http://www.w3.org/2000/svg">
<path d="M73.5 20.833C73.5 27.7366 56.7107 33.333 36 33.333C15.2893 33.333 -1.5 27.7366 -1.5 20.833M73.5 20.833C73.5 13.9294 56.7107 8.33301 36 8.33301C15.2893 8.33301 -1.5 13.9294 -1.5 20.833M73.5 20.833V79.1663C73.5 82.4816 69.5491 85.661 62.5165 88.0052C55.4839 90.3494 45.9456 91.6663 36 91.6663C26.0544 91.6663 16.5161 90.3494 9.48349 88.0052C2.45088 85.661 -1.5 82.4816 -1.5 79.1663V20.833M-1.5 49.9997C-1.5 53.3149 2.45088 56.4943 9.48349 58.8385C16.5161 61.1827 26.0544 62.4997 36 62.4997C45.9456 62.4997 55.4839 61.1827 62.5165 58.8385C69.5491 56.4943 73.5 53.3149 73.5 49.9997" stroke="url(#paint0_linear_34_4615)" stroke-width="16" stroke-linecap="round" stroke-linejoin="round"/>
<defs>
<linearGradient id="paint0_linear_34_4615" x1="-1.5" y1="8.33301" x2="74.4543" y2="9.21211" gradientUnits="userSpaceOnUse">
<stop stop-color="#3F9760"/>
<stop offset="1" stop-color="#D1955F"/>
</linearGradient>
</defs>
</svg>
