<svg width="94" height="86" viewBox="0 0 94 86" fill="none" xmlns="http://www.w3.org/2000/svg">
<path d="M57 96.9561V86.9561C57 81.6517 54.8929 76.5647 51.1421 72.8139C47.3914 69.0632 42.3043 66.9561 37 66.9561H7C1.69567 66.9561 -3.39141 69.0632 -7.14214 72.8139C-10.8929 76.5647 -13 81.6517 -13 86.9561V96.9561M57 7.5957C61.2888 8.70755 65.087 11.212 67.7984 14.716C70.5098 18.22 71.981 22.5251 71.981 26.9557C71.981 31.3863 70.5098 35.6914 67.7984 39.1954C65.087 42.6994 61.2888 45.2039 57 46.3157M87 96.9555V86.9555C86.9967 82.5241 85.5218 78.2193 82.8068 74.717C80.0919 71.2148 76.2906 68.7133 72 67.6055M42 26.9561C42 38.0017 33.0457 46.9561 22 46.9561C10.9543 46.9561 2 38.0017 2 26.9561C2 15.9104 10.9543 6.95605 22 6.95605C33.0457 6.95605 42 15.9104 42 26.9561Z" stroke="url(#paint0_linear_41_4639)" stroke-width="13.913" stroke-linecap="round" stroke-linejoin="round"/>
<defs>
<linearGradient id="paint0_linear_41_4639" x1="-13" y1="6.95605" x2="88.2653" y2="8.40303" gradientUnits="userSpaceOnUse">
<stop stop-color="#3F9760"/>
<stop offset="1" stop-color="#D1955F"/>
</linearGradient>
</defs>
</svg>
