<svg width="122" height="82" viewBox="0 0 122 82" fill="none" xmlns="http://www.w3.org/2000/svg">
<path d="M1.55393 11.9257C1.04966 8.46225 4.22499 5.97885 6.20412 5.69069L29.9537 2.23282L42.9186 11.4612L48.2495 48.0751L7.67726 53.9823L1.55393 11.9257Z" fill="#F8FAFC"/>
<path d="M42.9186 11.4612L48.2495 48.0751L7.67726 53.9823C7.67726 53.9823 2.05821 15.3892 1.55393 11.9257C1.04966 8.46225 4.22499 5.97885 6.20412 5.69069C8.18325 5.40254 29.9537 2.23282 29.9537 2.23282M42.9186 11.4612L29.9537 2.23282M42.9186 11.4612C42.9186 11.4612 32.8163 14.9531 31.5386 13.118C30.2608 11.283 29.9537 2.23282 29.9537 2.23282" stroke="black" stroke-width="3"/>
<g clip-path="url(#clip0_177_29)">
<path d="M21.8879 26.6527C21.8618 26.4772 21.8829 26.2979 21.949 26.1332C22.0151 25.9685 22.1239 25.8243 22.2641 25.7156C22.4043 25.6068 22.571 25.5373 22.7469 25.5142C22.9229 25.4911 23.1018 25.5152 23.2653 25.5841L28.642 27.8299C28.802 27.8962 28.942 28.0029 29.0484 28.1396C29.1547 28.2763 29.2238 28.4382 29.2487 28.6096C29.2737 28.781 29.2537 28.9559 29.1907 29.1173C29.1278 29.2786 29.024 29.4208 28.8895 29.53L24.3765 33.2157C24.2393 33.3284 24.0746 33.4026 23.8993 33.4306C23.7239 33.4586 23.5443 33.4394 23.3788 33.375C23.2134 33.3106 23.068 33.2033 22.9578 33.0642C22.8475 32.925 22.7763 32.759 22.7514 32.5832L21.8879 26.6527Z" stroke="url(#paint0_linear_177_29)" stroke-width="2" stroke-linecap="round" stroke-linejoin="round"/>
<path d="M26.7292 39.0819C32.1944 38.2862 35.9798 33.2107 35.1841 27.7454C34.3884 22.2802 29.3129 18.4948 23.8476 19.2905C18.3824 20.0863 14.597 25.1618 15.3928 30.627C16.1885 36.0922 21.264 39.8776 26.7292 39.0819Z" stroke="url(#paint1_linear_177_29)" stroke-width="2" stroke-linecap="round" stroke-linejoin="round"/>
</g>
<path d="M79.9672 5.58493C80.8319 2.19341 84.7175 1.12006 86.6555 1.61415L109.912 7.54322L118.338 21.0433L109.197 56.8964L69.4679 46.7676L79.9672 5.58493Z" fill="#F8FAFC"/>
<path d="M118.338 21.0433L109.197 56.8964L69.4679 46.7676C69.4679 46.7676 79.1026 8.97645 79.9672 5.58493C80.8319 2.19341 84.7175 1.12006 86.6555 1.61415C88.5935 2.10824 109.912 7.54322 109.912 7.54322M118.338 21.0433L109.912 7.54322M118.338 21.0433C118.338 21.0433 107.669 20.3873 107.194 18.2023C106.719 16.0172 109.912 7.54322 109.912 7.54322" stroke="black" stroke-width="3"/>
<g clip-path="url(#clip1_177_29)">
<path d="M87.7086 35.9382L90.9202 23.3412L103.042 24.3677L99.8307 36.9647M87.7086 35.9382C87.2993 37.5437 85.6659 38.5134 84.0604 38.1041C82.4549 37.6948 81.4852 36.0614 81.8946 34.4559C82.3039 32.8504 83.9372 31.8807 85.5427 32.2901C87.1482 32.6994 88.1179 34.3327 87.7086 35.9382ZM99.8307 36.9647C99.4214 38.5702 97.7881 39.5399 96.1826 39.1306C94.5771 38.7213 93.6074 37.088 94.0167 35.4825C94.426 33.877 96.0593 32.9073 97.6648 33.3166C99.2703 33.7259 100.24 35.3592 99.8307 36.9647Z" stroke="url(#paint2_linear_177_29)" stroke-width="2" stroke-linecap="round" stroke-linejoin="round"/>
</g>
<path d="M39.7615 37.0759C39.7615 33.5759 43.2615 31.5759 45.2615 31.5759H69.2615L80.7615 42.5759V79.5759H39.7615V37.0759Z" fill="#F8FAFC"/>
<path d="M80.7615 42.5759V79.5759H39.7615C39.7615 79.5759 39.7615 40.5759 39.7615 37.0759C39.7615 33.5759 43.2615 31.5759 45.2615 31.5759C47.2615 31.5759 69.2615 31.5759 69.2615 31.5759M80.7615 42.5759L69.2615 31.5759M80.7615 42.5759C80.7615 42.5759 70.2615 44.5759 69.2615 42.5759C68.2615 40.5759 69.2615 31.5759 69.2615 31.5759" stroke="black" stroke-width="3"/>
<path d="M53.9194 45.0045V41.5759M56.2615 46.5759L60.7615 45.0045M56.2615 48.5759L60.0773 50.7188M53.9194 50.0759V53.5759M51.2615 48.5759L47.7615 50.7188M51.2615 46.5759L47.7615 45.0045" stroke="url(#paint3_linear_177_29)" stroke-linecap="round"/>
<circle cx="53.7615" cy="47.5759" r="2.5" stroke="url(#paint4_linear_177_29)"/>
<path d="M74.2615 70.0759H47.7615L56.7615 61.0759L61.2615 65.0759L69.2615 57.5759L74.2615 63.0759" stroke="url(#paint5_linear_177_29)" stroke-width="2"/>
<defs>
<linearGradient id="paint0_linear_177_29" x1="13.952" y1="20.7313" x2="34.032" y2="18.0709" gradientUnits="userSpaceOnUse">
<stop stop-color="#3F9760"/>
<stop offset="1" stop-color="#D1955F"/>
</linearGradient>
<linearGradient id="paint1_linear_177_29" x1="13.952" y1="20.7313" x2="34.032" y2="18.0709" gradientUnits="userSpaceOnUse">
<stop stop-color="#3F9760"/>
<stop offset="1" stop-color="#D1955F"/>
</linearGradient>
<linearGradient id="paint2_linear_177_29" x1="85.6002" y1="19.9209" x2="103.206" y2="24.6513" gradientUnits="userSpaceOnUse">
<stop stop-color="#3F9760"/>
<stop offset="1" stop-color="#D1955F"/>
</linearGradient>
<linearGradient id="paint3_linear_177_29" x1="47.7615" y1="41.5759" x2="60.9261" y2="41.7593" gradientUnits="userSpaceOnUse">
<stop stop-color="#3F9760"/>
<stop offset="1" stop-color="#D1955F"/>
</linearGradient>
<linearGradient id="paint4_linear_177_29" x1="50.7615" y1="44.5759" x2="56.8377" y2="44.6541" gradientUnits="userSpaceOnUse">
<stop stop-color="#3F9760"/>
<stop offset="1" stop-color="#D1955F"/>
</linearGradient>
<linearGradient id="paint5_linear_177_29" x1="47.7615" y1="57.5759" x2="74.5824" y2="58.3071" gradientUnits="userSpaceOnUse">
<stop stop-color="#3F9760"/>
<stop offset="1" stop-color="#D1955F"/>
</linearGradient>
<clipPath id="clip0_177_29">
<rect width="24" height="24" fill="white" transform="translate(11.6847 19.0404) rotate(-8.2839)"/>
</clipPath>
<clipPath id="clip1_177_29">
<rect width="24" height="24" fill="white" transform="translate(83.4343 16.2727) rotate(14.3027)"/>
</clipPath>
</defs>
</svg>
